<?xml version="1.0" encoding="UTF-8" standalone="no"?>
<!DOCTYPE svg PUBLIC "-//W3C//DTD SVG 1.1//EN"
 "http://www.w3.org/Graphics/SVG/1.1/DTD/svg11.dtd">
<!-- Generated by graphviz version 2.26.3 (20100126.1600)
 -->
<!-- Title: G Pages: 1 -->
<svg width="1500pt" height="974pt"
 viewBox="0.00 0.00 1500.00 973.52" xmlns="http://www.w3.org/2000/svg" xmlns:xlink="http://www.w3.org/1999/xlink">
<g id="graph1" class="graph" transform="scale(1 1) rotate(0) translate(4 969.518)">
<title>G</title>
<polygon fill="white" stroke="white" points="-4,5 -4,-969.518 1497,-969.518 1497,5 -4,5"/>
<g id="graph2" class="cluster"><title>cluster_Global</title>
<polyline fill="none" stroke="gray" points="859,-369.518 1472,-369.518 "/>
<path fill="none" stroke="gray" d="M1472,-369.518C1478,-369.518 1484,-375.518 1484,-381.518"/>
<polyline fill="none" stroke="gray" points="1484,-381.518 1484,-945.518 "/>
<path fill="none" stroke="gray" d="M1484,-945.518C1484,-951.518 1478,-957.518 1472,-957.518"/>
<polyline fill="none" stroke="gray" points="1472,-957.518 859,-957.518 "/>
<path fill="none" stroke="gray" d="M859,-957.518C853,-957.518 847,-951.518 847,-945.518"/>
<polyline fill="none" stroke="gray" points="847,-945.518 847,-381.518 "/>
<path fill="none" stroke="gray" d="M847,-381.518C847,-375.518 853,-369.518 859,-369.518"/>
<text text-anchor="middle" x="1165.5" y="-943.618" font-family="Times Roman,serif" font-size="11.00" fill="gray">\</text>
</g>
<g id="graph3" class="cluster"><title>cluster_\AFWindow</title>
<polyline fill="none" stroke="gray" points="867,-377.518 1464,-377.518 "/>
<path fill="none" stroke="gray" d="M1464,-377.518C1470,-377.518 1476,-383.518 1476,-389.518"/>
<polyline fill="none" stroke="gray" points="1476,-389.518 1476,-915.518 "/>
<path fill="none" stroke="gray" d="M1476,-915.518C1476,-921.518 1470,-927.518 1464,-927.518"/>
<polyline fill="none" stroke="gray" points="1464,-927.518 867,-927.518 "/>
<path fill="none" stroke="gray" d="M867,-927.518C861,-927.518 855,-921.518 855,-915.518"/>
<polyline fill="none" stroke="gray" points="855,-915.518 855,-389.518 "/>
<path fill="none" stroke="gray" d="M855,-389.518C855,-383.518 861,-377.518 867,-377.518"/>
<text text-anchor="middle" x="1165.5" y="-913.618" font-family="Times Roman,serif" font-size="11.00" fill="gray">AFWindow</text>
</g>
<g id="graph4" class="cluster"><title>cluster_\AFWindow\Model</title>
<polyline fill="none" stroke="gray" points="875,-649.518 1456,-649.518 "/>
<path fill="none" stroke="gray" d="M1456,-649.518C1462,-649.518 1468,-655.518 1468,-661.518"/>
<polyline fill="none" stroke="gray" points="1468,-661.518 1468,-885.518 "/>
<path fill="none" stroke="gray" d="M1468,-885.518C1468,-891.518 1462,-897.518 1456,-897.518"/>
<polyline fill="none" stroke="gray" points="1456,-897.518 875,-897.518 "/>
<path fill="none" stroke="gray" d="M875,-897.518C869,-897.518 863,-891.518 863,-885.518"/>
<polyline fill="none" stroke="gray" points="863,-885.518 863,-661.518 "/>
<path fill="none" stroke="gray" d="M863,-661.518C863,-655.518 869,-649.518 875,-649.518"/>
<text text-anchor="middle" x="1165.5" y="-883.618" font-family="Times Roman,serif" font-size="11.00" fill="gray">Model</text>
</g>
<g id="graph5" class="cluster"><title>cluster_\AFWindow\Model\Service</title>
<polyline fill="none" stroke="gray" points="883,-793.518 1448,-793.518 "/>
<path fill="none" stroke="gray" d="M1448,-793.518C1454,-793.518 1460,-799.518 1460,-805.518"/>
<polyline fill="none" stroke="gray" points="1460,-805.518 1460,-855.518 "/>
<path fill="none" stroke="gray" d="M1460,-855.518C1460,-861.518 1454,-867.518 1448,-867.518"/>
<polyline fill="none" stroke="gray" points="1448,-867.518 883,-867.518 "/>
<path fill="none" stroke="gray" d="M883,-867.518C877,-867.518 871,-861.518 871,-855.518"/>
<polyline fill="none" stroke="gray" points="871,-855.518 871,-805.518 "/>
<path fill="none" stroke="gray" d="M871,-805.518C871,-799.518 877,-793.518 883,-793.518"/>
<text text-anchor="middle" x="1165.5" y="-853.618" font-family="Times Roman,serif" font-size="11.00" fill="gray">Service</text>
</g>
<g id="graph6" class="cluster"><title>cluster_\AFWindow\Model\Table</title>
<polyline fill="none" stroke="gray" points="1337,-657.518 1437,-657.518 "/>
<path fill="none" stroke="gray" d="M1437,-657.518C1443,-657.518 1449,-663.518 1449,-669.518"/>
<polyline fill="none" stroke="gray" points="1449,-669.518 1449,-773.518 "/>
<path fill="none" stroke="gray" d="M1449,-773.518C1449,-779.518 1443,-785.518 1437,-785.518"/>
<polyline fill="none" stroke="gray" points="1437,-785.518 1337,-785.518 "/>
<path fill="none" stroke="gray" d="M1337,-785.518C1331,-785.518 1325,-779.518 1325,-773.518"/>
<polyline fill="none" stroke="gray" points="1325,-773.518 1325,-669.518 "/>
<path fill="none" stroke="gray" d="M1325,-669.518C1325,-663.518 1331,-657.518 1337,-657.518"/>
<text text-anchor="middle" x="1387" y="-771.618" font-family="Times Roman,serif" font-size="11.00" fill="gray">Table</text>
</g>
<g id="graph7" class="cluster"><title>cluster_\AFWindow\Options</title>
<polyline fill="none" stroke="gray" points="1324,-513.518 1450,-513.518 "/>
<path fill="none" stroke="gray" d="M1450,-513.518C1456,-513.518 1462,-519.518 1462,-525.518"/>
<polyline fill="none" stroke="gray" points="1462,-525.518 1462,-629.518 "/>
<path fill="none" stroke="gray" d="M1462,-629.518C1462,-635.518 1456,-641.518 1450,-641.518"/>
<polyline fill="none" stroke="gray" points="1450,-641.518 1324,-641.518 "/>
<path fill="none" stroke="gray" d="M1324,-641.518C1318,-641.518 1312,-635.518 1312,-629.518"/>
<polyline fill="none" stroke="gray" points="1312,-629.518 1312,-525.518 "/>
<path fill="none" stroke="gray" d="M1312,-525.518C1312,-519.518 1318,-513.518 1324,-513.518"/>
<text text-anchor="middle" x="1387" y="-627.618" font-family="Times Roman,serif" font-size="11.00" fill="gray">Options</text>
</g>
<g id="graph8" class="cluster"><title>cluster_\AFWindow\Controller</title>
<polyline fill="none" stroke="gray" points="1338,-431.518 1436,-431.518 "/>
<path fill="none" stroke="gray" d="M1436,-431.518C1442,-431.518 1448,-437.518 1448,-443.518"/>
<polyline fill="none" stroke="gray" points="1448,-443.518 1448,-493.518 "/>
<path fill="none" stroke="gray" d="M1448,-493.518C1448,-499.518 1442,-505.518 1436,-505.518"/>
<polyline fill="none" stroke="gray" points="1436,-505.518 1338,-505.518 "/>
<path fill="none" stroke="gray" d="M1338,-505.518C1332,-505.518 1326,-499.518 1326,-493.518"/>
<polyline fill="none" stroke="gray" points="1326,-493.518 1326,-443.518 "/>
<path fill="none" stroke="gray" d="M1326,-443.518C1326,-437.518 1332,-431.518 1338,-431.518"/>
<text text-anchor="middle" x="1387" y="-491.618" font-family="Times Roman,serif" font-size="11.00" fill="gray">Controller</text>
</g>
<!-- \\AFWindow\\Model\\Service\\AbstractService -->
<g id="node5" class="node"><title>\\AFWindow\\Model\\Service\\AbstractService</title>
<polygon fill="none" stroke="black" points="982,-837.518 880,-837.518 880,-801.518 982,-801.518 982,-837.518"/>
<text text-anchor="middle" x="931" y="-816.618" font-family="Times Roman,serif" font-size="11.00">AbstractService</text>
</g>
<!-- \\Zend\\ServiceManager\\ServiceLocatorAwareInterface -->
<g id="node17" class="node"><title>\\Zend\\ServiceManager\\ServiceLocatorAwareInterface</title>
<ellipse fill="none" stroke="black" cx="271" cy="-819.518" rx="270.822" ry="18.3848"/>
<text text-anchor="middle" x="271" y="-815.918" font-family="Times Roman,serif" font-size="14.00" fill="gray">\Zend\ServiceManager\ServiceLocatorAwareInterface</text>
</g>
<!-- \\AFWindow\\Model\\Service\\AbstractService&#45;&gt;\\Zend\\ServiceManager\\ServiceLocatorAwareInterface -->
<g id="edge9" class="edge"><title>\\AFWindow\\Model\\Service\\AbstractService&#45;&gt;\\Zend\\ServiceManager\\ServiceLocatorAwareInterface</title>
<path fill="none" stroke="black" stroke-dasharray="1,5" d="M879.486,-819.518C808.595,-819.518 675.669,-819.518 552.098,-819.518"/>
<polygon fill="none" stroke="black" points="552.081,-816.018 542.081,-819.518 552.081,-823.018 552.081,-816.018"/>
</g>
<!-- \\AFWindow\\Model\\Service\\CurrencyWebService -->
<g id="node6" class="node"><title>\\AFWindow\\Model\\Service\\CurrencyWebService</title>
<polygon fill="none" stroke="black" points="1451,-837.518 1323,-837.518 1323,-801.518 1451,-801.518 1451,-837.518"/>
<text text-anchor="middle" x="1387" y="-816.618" font-family="Times Roman,serif" font-size="11.00">CurrencyWebService</text>
</g>
<!-- \\AFWindow\\Model\\Service\\CurrencyWebService&#45;&gt;\\AFWindow\\Model\\Service\\AbstractService -->
<g id="edge19" class="edge"><title>\\AFWindow\\Model\\Service\\CurrencyWebService&#45;&gt;\\AFWindow\\Model\\Service\\AbstractService</title>
<path fill="none" stroke="black" d="M1322.15,-819.518C1234.37,-819.518 1078.84,-819.518 992.713,-819.518"/>
<polygon fill="none" stroke="black" points="992.563,-816.018 982.563,-819.518 992.563,-823.018 992.563,-816.018"/>
</g>
<!-- \\AFWindow\\Model\\Table\\AbstractTable -->
<g id="node8" class="node"><title>\\AFWindow\\Model\\Table\\AbstractTable</title>
<polygon fill="none" stroke="black" points="1432,-755.518 1342,-755.518 1342,-719.518 1432,-719.518 1432,-755.518"/>
<text text-anchor="middle" x="1387" y="-734.618" font-family="Times Roman,serif" font-size="11.00">AbstractTable</text>
</g>
<!-- \\Zend\\Db\\TableGateway\\AbstractTableGateway -->
<g id="node28" class="node"><title>\\Zend\\Db\\TableGateway\\AbstractTableGateway</title>
<ellipse fill="none" stroke="black" cx="931" cy="-343.518" rx="243.245" ry="18.3848"/>
<text text-anchor="middle" x="931" y="-339.918" font-family="Times Roman,serif" font-size="14.00" fill="gray">\Zend\Db\TableGateway\AbstractTableGateway</text>
</g>
<!-- \\AFWindow\\Model\\Table\\AbstractTable&#45;&gt;\\Zend\\Db\\TableGateway\\AbstractTableGateway -->
<g id="edge21" class="edge"><title>\\AFWindow\\Model\\Table\\AbstractTable&#45;&gt;\\Zend\\Db\\TableGateway\\AbstractTableGateway</title>
<path fill="none" stroke="black" d="M1341.15,-724.478C1331.17,-720.705 1320.93,-716.07 1312,-710.518 1152.25,-611.223 1004.25,-435.913 951.451,-369.766"/>
<polygon fill="none" stroke="black" points="953.878,-367.194 944.922,-361.533 948.393,-371.543 953.878,-367.194"/>
</g>
<!-- \\AFWindow\\Model\\Table\\TransactionTable -->
<g id="node9" class="node"><title>\\AFWindow\\Model\\Table\\TransactionTable</title>
<polygon fill="none" stroke="black" points="1440,-701.518 1334,-701.518 1334,-665.518 1440,-665.518 1440,-701.518"/>
<text text-anchor="middle" x="1387" y="-680.618" font-family="Times Roman,serif" font-size="11.00">TransactionTable</text>
</g>
<!-- \\AFWindow\\Options\\ModuleOptions -->
<g id="node11" class="node"><title>\\AFWindow\\Options\\ModuleOptions</title>
<polygon fill="none" stroke="black" points="1436,-611.518 1338,-611.518 1338,-575.518 1436,-575.518 1436,-611.518"/>
<text text-anchor="middle" x="1387" y="-590.618" font-family="Times Roman,serif" font-size="11.00">ModuleOptions</text>
</g>
<!-- \\Zend\\Stdlib\\AbstractOptions -->
<g id="node30" class="node"><title>\\Zend\\Stdlib\\AbstractOptions</title>
<ellipse fill="none" stroke="black" cx="931" cy="-289.518" rx="152.028" ry="18.3848"/>
<text text-anchor="middle" x="931" y="-285.918" font-family="Times Roman,serif" font-size="14.00" fill="gray">\Zend\Stdlib\AbstractOptions</text>
</g>
<!-- \\AFWindow\\Options\\ModuleOptions&#45;&gt;\\Zend\\Stdlib\\AbstractOptions -->
<g id="edge23" class="edge"><title>\\AFWindow\\Options\\ModuleOptions&#45;&gt;\\Zend\\Stdlib\\AbstractOptions</title>
<path fill="none" stroke="black" d="M1337.62,-583.47C1328.06,-579.547 1318.89,-574.095 1312,-566.518 1234.84,-481.66 1335.53,-390.631 1248,-316.518 1184.22,-262.514 1085.09,-262.916 1014.68,-272.276"/>
<polygon fill="none" stroke="black" points="1013.92,-268.849 1004.51,-273.717 1014.9,-275.78 1013.92,-268.849"/>
</g>
<!-- \\AFWindow\\Options\\CurrencyRateOptions -->
<g id="node12" class="node"><title>\\AFWindow\\Options\\CurrencyRateOptions</title>
<polygon fill="none" stroke="black" points="1453,-557.518 1321,-557.518 1321,-521.518 1453,-521.518 1453,-557.518"/>
<text text-anchor="middle" x="1387" y="-536.618" font-family="Times Roman,serif" font-size="11.00">CurrencyRateOptions</text>
</g>
<!-- \\AFWindow\\Options\\CurrencyRateOptions&#45;&gt;\\Zend\\Stdlib\\AbstractOptions -->
<g id="edge25" class="edge"><title>\\AFWindow\\Options\\CurrencyRateOptions&#45;&gt;\\Zend\\Stdlib\\AbstractOptions</title>
<path fill="none" stroke="black" d="M1326.95,-521.337C1321.45,-518.019 1316.33,-514.113 1312,-509.518 1250.05,-443.718 1318.96,-372.48 1248,-316.518 1184.03,-266.069 1088.54,-264.79 1019.09,-272.769"/>
<polygon fill="none" stroke="black" points="1018.54,-269.311 1009.04,-274.008 1019.4,-276.258 1018.54,-269.311"/>
</g>
<!-- \\AFWindow\\Controller\\ReportController -->
<g id="node14" class="node"><title>\\AFWindow\\Controller\\ReportController</title>
<polygon fill="none" stroke="black" points="1439,-475.518 1335,-475.518 1335,-439.518 1439,-439.518 1439,-475.518"/>
<text text-anchor="middle" x="1387" y="-454.618" font-family="Times Roman,serif" font-size="11.00">ReportController</text>
</g>
<!-- \\Zend\\Mvc\\Controller\\AbstractActionController -->
<g id="node33" class="node"><title>\\Zend\\Mvc\\Controller\\AbstractActionController</title>
<ellipse fill="none" stroke="black" cx="931" cy="-235.518" rx="237.088" ry="18.3848"/>
<text text-anchor="middle" x="931" y="-231.918" font-family="Times Roman,serif" font-size="14.00" fill="gray">\Zend\Mvc\Controller\AbstractActionController</text>
</g>
<!-- \\AFWindow\\Controller\\ReportController&#45;&gt;\\Zend\\Mvc\\Controller\\AbstractActionController -->
<g id="edge27" class="edge"><title>\\AFWindow\\Controller\\ReportController&#45;&gt;\\Zend\\Mvc\\Controller\\AbstractActionController</title>
<path fill="none" stroke="black" d="M1334.43,-448.954C1326.21,-445.781 1318.35,-441.443 1312,-435.518 1252.07,-379.582 1313.23,-312.179 1248,-262.518 1187.6,-216.531 1100.68,-212.141 1033.13,-217.938"/>
<polygon fill="none" stroke="black" points="1032.51,-214.481 1022.88,-218.907 1033.17,-221.45 1032.51,-214.481"/>
</g>
<!-- \\AFWindow\\Module -->
<g id="node15" class="node"><title>\\AFWindow\\Module</title>
<polygon fill="none" stroke="black" points="1415,-421.518 1359,-421.518 1359,-385.518 1415,-385.518 1415,-421.518"/>
<text text-anchor="middle" x="1387" y="-400.618" font-family="Times Roman,serif" font-size="11.00">Module</text>
</g>
<!-- \\Zend\\ModuleManager\\Feature\\AutoloaderProviderInterface -->
<g id="node19" class="node"><title>\\Zend\\ModuleManager\\Feature\\AutoloaderProviderInterface</title>
<ellipse fill="none" stroke="black" cx="931" cy="-181.518" rx="302.141" ry="18.3848"/>
<text text-anchor="middle" x="931" y="-177.918" font-family="Times Roman,serif" font-size="14.00" fill="gray">\Zend\ModuleManager\Feature\AutoloaderProviderInterface</text>
</g>
<!-- \\AFWindow\\Module&#45;&gt;\\Zend\\ModuleManager\\Feature\\AutoloaderProviderInterface -->
<g id="edge11" class="edge"><title>\\AFWindow\\Module&#45;&gt;\\Zend\\ModuleManager\\Feature\\AutoloaderProviderInterface</title>
<path fill="none" stroke="black" stroke-dasharray="1,5" d="M1380.21,-385.219C1364.22,-345.077 1320.05,-249.603 1248,-208.518 1237.41,-202.479 1226.29,-197.281 1214.81,-192.824"/>
<polygon fill="none" stroke="black" points="1215.68,-189.414 1205.09,-189.251 1213.27,-195.985 1215.68,-189.414"/>
</g>
<!-- \\Zend\\ModuleManager\\Feature\\ConfigProviderInterface -->
<g id="node21" class="node"><title>\\Zend\\ModuleManager\\Feature\\ConfigProviderInterface</title>
<ellipse fill="none" stroke="black" cx="931" cy="-127.518" rx="278.808" ry="18.3848"/>
<text text-anchor="middle" x="931" y="-123.918" font-family="Times Roman,serif" font-size="14.00" fill="gray">\Zend\ModuleManager\Feature\ConfigProviderInterface</text>
</g>
<!-- \\AFWindow\\Module&#45;&gt;\\Zend\\ModuleManager\\Feature\\ConfigProviderInterface -->
<g id="edge13" class="edge"><title>\\AFWindow\\Module&#45;&gt;\\Zend\\ModuleManager\\Feature\\ConfigProviderInterface</title>
<path fill="none" stroke="black" stroke-dasharray="1,5" d="M1383.05,-385.409C1371.66,-337.98 1333.89,-209.972 1248,-154.518 1236.52,-147.104 1224.29,-140.872 1211.58,-135.661"/>
<polygon fill="none" stroke="black" points="1212.83,-132.391 1202.24,-132.045 1210.3,-138.919 1212.83,-132.391"/>
</g>
<!-- \\Zend\\ModuleManager\\Feature\\ConsoleUsageProviderInterface -->
<g id="node23" class="node"><title>\\Zend\\ModuleManager\\Feature\\ConsoleUsageProviderInterface</title>
<ellipse fill="none" stroke="black" cx="931" cy="-73.5177" rx="316.784" ry="18.3848"/>
<text text-anchor="middle" x="931" y="-69.9177" font-family="Times Roman,serif" font-size="14.00" fill="gray">\Zend\ModuleManager\Feature\ConsoleUsageProviderInterface</text>
</g>
<!-- \\AFWindow\\Module&#45;&gt;\\Zend\\ModuleManager\\Feature\\ConsoleUsageProviderInterface -->
<g id="edge15" class="edge"><title>\\AFWindow\\Module&#45;&gt;\\Zend\\ModuleManager\\Feature\\ConsoleUsageProviderInterface</title>
<path fill="none" stroke="black" stroke-dasharray="1,5" d="M1384.88,-385.233C1377.55,-331.05 1347.89,-170.758 1248,-100.518 1192.35,-61.3897 1116.88,-53.6612 1053.53,-56.1762"/>
<polygon fill="none" stroke="black" points="1053.29,-52.6835 1043.48,-56.6645 1053.63,-59.6753 1053.29,-52.6835"/>
</g>
<!-- \\Zend\\ModuleManager\\Feature\\ServiceProviderInterface -->
<g id="node25" class="node"><title>\\Zend\\ModuleManager\\Feature\\ServiceProviderInterface</title>
<ellipse fill="none" stroke="black" cx="931" cy="-19.5177" rx="283.757" ry="18.3848"/>
<text text-anchor="middle" x="931" y="-15.9177" font-family="Times Roman,serif" font-size="14.00" fill="gray">\Zend\ModuleManager\Feature\ServiceProviderInterface</text>
</g>
<!-- \\AFWindow\\Module&#45;&gt;\\Zend\\ModuleManager\\Feature\\ServiceProviderInterface -->
<g id="edge17" class="edge"><title>\\AFWindow\\Module&#45;&gt;\\Zend\\ModuleManager\\Feature\\ServiceProviderInterface</title>
<path fill="none" stroke="black" stroke-dasharray="1,5" d="M1386.23,-385.151C1382.63,-324.86 1362.24,-131.973 1248,-46.5177 1189.1,-2.46123 1105.71,3.06698 1039.23,-1.77118"/>
<polygon fill="none" stroke="black" points="1038.82,1.70668 1029.14,-2.59442 1039.39,-5.27017 1038.82,1.70668"/>
</g>
</g>
</svg>
